<?xml version="1.0" encoding="UTF-8"?>
<!DOCTYPE svg PUBLIC "-//W3C//DTD SVG 1.1//EN" "http://www.w3.org/Graphics/SVG/1.1/DTD/svg11.dtd">
<!-- Creator: CorelDRAW X7 -->
<svg xmlns="http://www.w3.org/2000/svg" xml:space="preserve" width="195mm" height="195mm" version="1.1" style="shape-rendering:geometricPrecision; text-rendering:geometricPrecision; image-rendering:optimizeQuality; fill-rule:evenodd; clip-rule:evenodd"
viewBox="0 0 19500 19500"
 xmlns:xlink="http://www.w3.org/1999/xlink">
 <defs>
  <style type="text/css">
   <![CDATA[
    .str0 {stroke:white;stroke-width:7.62}
    .fil2 {fill:none;fill-rule:nonzero}
    .fil0 {fill:#461CDB}
    .fil1 {fill:white;fill-rule:nonzero}
   ]]>
  </style>
 </defs>
 <g id="Layer_x0020_1">
  <metadata id="CorelCorpID_0Corel-Layer"/>
  <g id="_3047214578128">
   <rect class="fil0" x="36" y="36" width="19429" height="19429" rx="2286" ry="2286"/>
   <path class="fil1" d="M5913 10787l0 -1566 3485 0 0 3697c-338,382 -829,716 -1474,1007 -642,289 -1294,434 -1955,434 -839,0 -1569,-203 -2193,-610 -622,-408 -1091,-993 -1404,-1750 -314,-757 -471,-1583 -471,-2474 0,-967 176,-1825 525,-2578 351,-751 863,-1329 1537,-1730 515,-309 1154,-462 1920,-462 996,0 1774,242 2335,725 558,485 919,1152 1079,2006l-1614 350c-112,-456 -324,-816 -636,-1081 -310,-263 -699,-395 -1166,-395 -706,0 -1268,259 -1685,779 -416,520 -625,1290 -625,2310 0,1103 211,1929 633,2479 424,550 977,826 1662,826 338,0 678,-78 1018,-231 342,-153 633,-341 878,-561l0 -1175 -1849 0z"/>
   <path id="1" class="fil1" d="M16030 10774l1569 556c-241,1021 -642,1778 -1203,2274 -560,494 -1270,742 -2131,742 -1066,0 -1942,-421 -2629,-1262 -686,-841 -1030,-1991 -1030,-3451 0,-1543 346,-2742 1035,-3596 689,-855 1597,-1282 2721,-1282 983,0 1780,337 2393,1008 366,397 639,966 822,1710l-1603 440c-95,-479 -293,-858 -594,-1137 -302,-278 -668,-416 -1098,-416 -596,0 -1079,246 -1449,740 -372,492 -557,1290 -557,2395 0,1169 183,2004 547,2500 367,498 841,746 1426,746 431,0 803,-157 1113,-474 310,-318 534,-814 668,-1493z"/>
   <path id="2" class="fil2 str0" d="M5913 10787l0 -1566 3485 0 0 3697c-338,382 -829,716 -1474,1007 -642,289 -1294,434 -1955,434 -839,0 -1569,-203 -2193,-610 -622,-408 -1091,-993 -1404,-1750 -314,-757 -471,-1583 -471,-2474 0,-967 176,-1825 525,-2578 351,-751 863,-1329 1537,-1730 515,-309 1154,-462 1920,-462 996,0 1774,242 2335,725 558,485 919,1152 1079,2006l-1614 350c-112,-456 -324,-816 -636,-1081 -310,-263 -699,-395 -1166,-395 -706,0 -1268,259 -1685,779 -416,520 -625,1290 -625,2310 0,1103 211,1929 633,2479 424,550 977,826 1662,826 338,0 678,-78 1018,-231 342,-153 633,-341 878,-561l0 -1175 -1849 0z"/>
   <path id="3" class="fil2 str0" d="M16030 10774l1569 556c-241,1021 -642,1778 -1203,2274 -560,494 -1270,742 -2131,742 -1066,0 -1942,-421 -2629,-1262 -686,-841 -1030,-1991 -1030,-3451 0,-1543 346,-2742 1035,-3596 689,-855 1597,-1282 2721,-1282 983,0 1780,337 2393,1008 366,397 639,966 822,1710l-1603 440c-95,-479 -293,-858 -594,-1137 -302,-278 -668,-416 -1098,-416 -596,0 -1079,246 -1449,740 -372,492 -557,1290 -557,2395 0,1169 183,2004 547,2500 367,498 841,746 1426,746 431,0 803,-157 1113,-474 310,-318 534,-814 668,-1493z"/>
  </g>
 </g>
</svg>
